<mxfile host="app.diagrams.net" modified="2020-12-04T08:29:35.085Z" agent="5.0 (X11; Linux x86_64) AppleWebKit/537.36 (KHTML, like Gecko) Chrome/87.0.4280.66 Safari/537.36" etag="hsb4RLVDKMn9kkh_VYBu" version="13.9.7" type="github">
  <diagram id="5Cmo91NUEk2H3ckEnoAz" name="Page-1">
    <mxGraphModel dx="800" dy="1141" grid="1" gridSize="10" guides="1" tooltips="1" connect="1" arrows="1" fold="1" page="1" pageScale="1" pageWidth="850" pageHeight="1100" math="0" shadow="0">
      <root>
        <mxCell id="0" />
        <mxCell id="1" parent="0" />
        <mxCell id="lO88fd5yi4aPhk9MZSfZ-1" value="Local computation" style="rounded=0;whiteSpace=wrap;html=1;fillColor=#cce5ff;strokeColor=#36393d;" vertex="1" parent="1">
          <mxGeometry x="160" y="120" width="80" height="80" as="geometry" />
        </mxCell>
        <mxCell id="lO88fd5yi4aPhk9MZSfZ-2" value="Send border data" style="rounded=0;whiteSpace=wrap;html=1;fillColor=#dae8fc;strokeColor=#6c8ebf;gradientColor=#7ea6e0;" vertex="1" parent="1">
          <mxGeometry x="280" y="120" width="80" height="80" as="geometry" />
        </mxCell>
        <mxCell id="lO88fd5yi4aPhk9MZSfZ-3" value="Receive halo data" style="rounded=0;whiteSpace=wrap;html=1;fillColor=#d5e8d4;strokeColor=#82b366;gradientColor=#97d077;" vertex="1" parent="1">
          <mxGeometry x="400" y="120" width="80" height="80" as="geometry" />
        </mxCell>
        <mxCell id="lO88fd5yi4aPhk9MZSfZ-4" value="Non-local computation" style="rounded=0;whiteSpace=wrap;html=1;fillColor=#ffcccc;strokeColor=#36393d;" vertex="1" parent="1">
          <mxGeometry x="520" y="120" width="80" height="80" as="geometry" />
        </mxCell>
        <mxCell id="lO88fd5yi4aPhk9MZSfZ-5" value="Start time&lt;br&gt;step" style="ellipse;whiteSpace=wrap;html=1;aspect=fixed;fillColor=#ffff88;strokeColor=#36393d;" vertex="1" parent="1">
          <mxGeometry x="40" y="120" width="80" height="80" as="geometry" />
        </mxCell>
        <mxCell id="lO88fd5yi4aPhk9MZSfZ-6" value="End time&lt;br&gt;step" style="ellipse;whiteSpace=wrap;html=1;aspect=fixed;fillColor=#ffff88;strokeColor=#36393d;" vertex="1" parent="1">
          <mxGeometry x="640" y="120" width="80" height="80" as="geometry" />
        </mxCell>
        <mxCell id="lO88fd5yi4aPhk9MZSfZ-7" value="Local computation" style="rounded=0;whiteSpace=wrap;html=1;fillColor=#cce5ff;strokeColor=#36393d;" vertex="1" parent="1">
          <mxGeometry x="160" y="360" width="80" height="80" as="geometry" />
        </mxCell>
        <mxCell id="lO88fd5yi4aPhk9MZSfZ-8" value="Send border data" style="rounded=0;whiteSpace=wrap;html=1;fillColor=#dae8fc;strokeColor=#6c8ebf;gradientColor=#7ea6e0;" vertex="1" parent="1">
          <mxGeometry x="280" y="360" width="80" height="80" as="geometry" />
        </mxCell>
        <mxCell id="lO88fd5yi4aPhk9MZSfZ-9" value="Receive halo data" style="rounded=0;whiteSpace=wrap;html=1;fillColor=#d5e8d4;strokeColor=#82b366;gradientColor=#97d077;" vertex="1" parent="1">
          <mxGeometry x="400" y="360" width="80" height="80" as="geometry" />
        </mxCell>
        <mxCell id="lO88fd5yi4aPhk9MZSfZ-10" value="Non-local computation" style="rounded=0;whiteSpace=wrap;html=1;fillColor=#ffcccc;strokeColor=#36393d;" vertex="1" parent="1">
          <mxGeometry x="520" y="360" width="80" height="80" as="geometry" />
        </mxCell>
        <mxCell id="lO88fd5yi4aPhk9MZSfZ-11" value="Start time&lt;br&gt;step" style="ellipse;whiteSpace=wrap;html=1;aspect=fixed;fillColor=#ffff88;strokeColor=#36393d;" vertex="1" parent="1">
          <mxGeometry x="40" y="360" width="80" height="80" as="geometry" />
        </mxCell>
        <mxCell id="lO88fd5yi4aPhk9MZSfZ-12" value="End time&lt;br&gt;step" style="ellipse;whiteSpace=wrap;html=1;aspect=fixed;fillColor=#ffff88;strokeColor=#36393d;" vertex="1" parent="1">
          <mxGeometry x="640" y="360" width="80" height="80" as="geometry" />
        </mxCell>
        <mxCell id="lO88fd5yi4aPhk9MZSfZ-13" value="" style="verticalLabelPosition=bottom;verticalAlign=top;html=1;shape=mxgraph.basic.8_point_star;fillColor=#e51400;strokeColor=#B20000;fontColor=#ffffff;" vertex="1" parent="1">
          <mxGeometry x="270" y="240" width="100" height="100" as="geometry" />
        </mxCell>
        <mxCell id="lO88fd5yi4aPhk9MZSfZ-15" value="Deadlock!" style="text;html=1;strokeColor=none;fillColor=none;align=center;verticalAlign=middle;whiteSpace=wrap;rounded=0;fontColor=#FFFF33;fontStyle=1" vertex="1" parent="1">
          <mxGeometry x="300" y="280" width="40" height="20" as="geometry" />
        </mxCell>
        <mxCell id="lO88fd5yi4aPhk9MZSfZ-19" value="" style="verticalLabelPosition=bottom;verticalAlign=top;html=1;shape=mxgraph.basic.8_point_star;fillColor=#e51400;strokeColor=#B20000;fontColor=#ffffff;" vertex="1" parent="1">
          <mxGeometry x="390" y="240" width="100" height="100" as="geometry" />
        </mxCell>
        <mxCell id="lO88fd5yi4aPhk9MZSfZ-20" value="Deadlock!" style="text;html=1;strokeColor=none;fillColor=none;align=center;verticalAlign=middle;whiteSpace=wrap;rounded=0;fontColor=#FFFF33;fontStyle=1" vertex="1" parent="1">
          <mxGeometry x="420" y="280" width="40" height="20" as="geometry" />
        </mxCell>
      </root>
    </mxGraphModel>
  </diagram>
</mxfile>
